%TF.GenerationSoftware,KiCad,Pcbnew,9.0.0*%
%TF.CreationDate,2025-03-23T20:18:55-06:00*%
%TF.ProjectId,FuzzFace2copy,46757a7a-4661-4636-9532-636f70792e6b,rev?*%
%TF.SameCoordinates,Original*%
%TF.FileFunction,Legend,Top*%
%TF.FilePolarity,Positive*%
%FSLAX46Y46*%
G04 Gerber Fmt 4.6, Leading zero omitted, Abs format (unit mm)*
G04 Created by KiCad (PCBNEW 9.0.0) date 2025-03-23 20:18:55*
%MOMM*%
%LPD*%
G01*
G04 APERTURE LIST*
%ADD10C,0.150000*%
%ADD11C,0.120000*%
G04 APERTURE END LIST*
D10*
X154833333Y-61824819D02*
X154500000Y-61348628D01*
X154261905Y-61824819D02*
X154261905Y-60824819D01*
X154261905Y-60824819D02*
X154642857Y-60824819D01*
X154642857Y-60824819D02*
X154738095Y-60872438D01*
X154738095Y-60872438D02*
X154785714Y-60920057D01*
X154785714Y-60920057D02*
X154833333Y-61015295D01*
X154833333Y-61015295D02*
X154833333Y-61158152D01*
X154833333Y-61158152D02*
X154785714Y-61253390D01*
X154785714Y-61253390D02*
X154738095Y-61301009D01*
X154738095Y-61301009D02*
X154642857Y-61348628D01*
X154642857Y-61348628D02*
X154261905Y-61348628D01*
X155785714Y-61824819D02*
X155214286Y-61824819D01*
X155500000Y-61824819D02*
X155500000Y-60824819D01*
X155500000Y-60824819D02*
X155404762Y-60967676D01*
X155404762Y-60967676D02*
X155309524Y-61062914D01*
X155309524Y-61062914D02*
X155214286Y-61110533D01*
X175333333Y-56859580D02*
X175285714Y-56907200D01*
X175285714Y-56907200D02*
X175142857Y-56954819D01*
X175142857Y-56954819D02*
X175047619Y-56954819D01*
X175047619Y-56954819D02*
X174904762Y-56907200D01*
X174904762Y-56907200D02*
X174809524Y-56811961D01*
X174809524Y-56811961D02*
X174761905Y-56716723D01*
X174761905Y-56716723D02*
X174714286Y-56526247D01*
X174714286Y-56526247D02*
X174714286Y-56383390D01*
X174714286Y-56383390D02*
X174761905Y-56192914D01*
X174761905Y-56192914D02*
X174809524Y-56097676D01*
X174809524Y-56097676D02*
X174904762Y-56002438D01*
X174904762Y-56002438D02*
X175047619Y-55954819D01*
X175047619Y-55954819D02*
X175142857Y-55954819D01*
X175142857Y-55954819D02*
X175285714Y-56002438D01*
X175285714Y-56002438D02*
X175333333Y-56050057D01*
X175666667Y-55954819D02*
X176285714Y-55954819D01*
X176285714Y-55954819D02*
X175952381Y-56335771D01*
X175952381Y-56335771D02*
X176095238Y-56335771D01*
X176095238Y-56335771D02*
X176190476Y-56383390D01*
X176190476Y-56383390D02*
X176238095Y-56431009D01*
X176238095Y-56431009D02*
X176285714Y-56526247D01*
X176285714Y-56526247D02*
X176285714Y-56764342D01*
X176285714Y-56764342D02*
X176238095Y-56859580D01*
X176238095Y-56859580D02*
X176190476Y-56907200D01*
X176190476Y-56907200D02*
X176095238Y-56954819D01*
X176095238Y-56954819D02*
X175809524Y-56954819D01*
X175809524Y-56954819D02*
X175714286Y-56907200D01*
X175714286Y-56907200D02*
X175666667Y-56859580D01*
X143083333Y-66704819D02*
X142750000Y-66228628D01*
X142511905Y-66704819D02*
X142511905Y-65704819D01*
X142511905Y-65704819D02*
X142892857Y-65704819D01*
X142892857Y-65704819D02*
X142988095Y-65752438D01*
X142988095Y-65752438D02*
X143035714Y-65800057D01*
X143035714Y-65800057D02*
X143083333Y-65895295D01*
X143083333Y-65895295D02*
X143083333Y-66038152D01*
X143083333Y-66038152D02*
X143035714Y-66133390D01*
X143035714Y-66133390D02*
X142988095Y-66181009D01*
X142988095Y-66181009D02*
X142892857Y-66228628D01*
X142892857Y-66228628D02*
X142511905Y-66228628D01*
X143940476Y-66038152D02*
X143940476Y-66704819D01*
X143702381Y-65657200D02*
X143464286Y-66371485D01*
X143464286Y-66371485D02*
X144083333Y-66371485D01*
X143238095Y-79054819D02*
X143238095Y-78054819D01*
X143238095Y-78531009D02*
X143809523Y-78531009D01*
X143809523Y-79054819D02*
X143809523Y-78054819D01*
X144190476Y-78054819D02*
X144809523Y-78054819D01*
X144809523Y-78054819D02*
X144476190Y-78435771D01*
X144476190Y-78435771D02*
X144619047Y-78435771D01*
X144619047Y-78435771D02*
X144714285Y-78483390D01*
X144714285Y-78483390D02*
X144761904Y-78531009D01*
X144761904Y-78531009D02*
X144809523Y-78626247D01*
X144809523Y-78626247D02*
X144809523Y-78864342D01*
X144809523Y-78864342D02*
X144761904Y-78959580D01*
X144761904Y-78959580D02*
X144714285Y-79007200D01*
X144714285Y-79007200D02*
X144619047Y-79054819D01*
X144619047Y-79054819D02*
X144333333Y-79054819D01*
X144333333Y-79054819D02*
X144238095Y-79007200D01*
X144238095Y-79007200D02*
X144190476Y-78959580D01*
X158833333Y-73954819D02*
X158500000Y-73478628D01*
X158261905Y-73954819D02*
X158261905Y-72954819D01*
X158261905Y-72954819D02*
X158642857Y-72954819D01*
X158642857Y-72954819D02*
X158738095Y-73002438D01*
X158738095Y-73002438D02*
X158785714Y-73050057D01*
X158785714Y-73050057D02*
X158833333Y-73145295D01*
X158833333Y-73145295D02*
X158833333Y-73288152D01*
X158833333Y-73288152D02*
X158785714Y-73383390D01*
X158785714Y-73383390D02*
X158738095Y-73431009D01*
X158738095Y-73431009D02*
X158642857Y-73478628D01*
X158642857Y-73478628D02*
X158261905Y-73478628D01*
X159738095Y-72954819D02*
X159261905Y-72954819D01*
X159261905Y-72954819D02*
X159214286Y-73431009D01*
X159214286Y-73431009D02*
X159261905Y-73383390D01*
X159261905Y-73383390D02*
X159357143Y-73335771D01*
X159357143Y-73335771D02*
X159595238Y-73335771D01*
X159595238Y-73335771D02*
X159690476Y-73383390D01*
X159690476Y-73383390D02*
X159738095Y-73431009D01*
X159738095Y-73431009D02*
X159785714Y-73526247D01*
X159785714Y-73526247D02*
X159785714Y-73764342D01*
X159785714Y-73764342D02*
X159738095Y-73859580D01*
X159738095Y-73859580D02*
X159690476Y-73907200D01*
X159690476Y-73907200D02*
X159595238Y-73954819D01*
X159595238Y-73954819D02*
X159357143Y-73954819D01*
X159357143Y-73954819D02*
X159261905Y-73907200D01*
X159261905Y-73907200D02*
X159214286Y-73859580D01*
X139404761Y-66750057D02*
X139309523Y-66702438D01*
X139309523Y-66702438D02*
X139214285Y-66607200D01*
X139214285Y-66607200D02*
X139071428Y-66464342D01*
X139071428Y-66464342D02*
X138976190Y-66416723D01*
X138976190Y-66416723D02*
X138880952Y-66416723D01*
X138928571Y-66654819D02*
X138833333Y-66607200D01*
X138833333Y-66607200D02*
X138738095Y-66511961D01*
X138738095Y-66511961D02*
X138690476Y-66321485D01*
X138690476Y-66321485D02*
X138690476Y-65988152D01*
X138690476Y-65988152D02*
X138738095Y-65797676D01*
X138738095Y-65797676D02*
X138833333Y-65702438D01*
X138833333Y-65702438D02*
X138928571Y-65654819D01*
X138928571Y-65654819D02*
X139119047Y-65654819D01*
X139119047Y-65654819D02*
X139214285Y-65702438D01*
X139214285Y-65702438D02*
X139309523Y-65797676D01*
X139309523Y-65797676D02*
X139357142Y-65988152D01*
X139357142Y-65988152D02*
X139357142Y-66321485D01*
X139357142Y-66321485D02*
X139309523Y-66511961D01*
X139309523Y-66511961D02*
X139214285Y-66607200D01*
X139214285Y-66607200D02*
X139119047Y-66654819D01*
X139119047Y-66654819D02*
X138928571Y-66654819D01*
X140309523Y-66654819D02*
X139738095Y-66654819D01*
X140023809Y-66654819D02*
X140023809Y-65654819D01*
X140023809Y-65654819D02*
X139928571Y-65797676D01*
X139928571Y-65797676D02*
X139833333Y-65892914D01*
X139833333Y-65892914D02*
X139738095Y-65940533D01*
X165833333Y-57084819D02*
X165500000Y-56608628D01*
X165261905Y-57084819D02*
X165261905Y-56084819D01*
X165261905Y-56084819D02*
X165642857Y-56084819D01*
X165642857Y-56084819D02*
X165738095Y-56132438D01*
X165738095Y-56132438D02*
X165785714Y-56180057D01*
X165785714Y-56180057D02*
X165833333Y-56275295D01*
X165833333Y-56275295D02*
X165833333Y-56418152D01*
X165833333Y-56418152D02*
X165785714Y-56513390D01*
X165785714Y-56513390D02*
X165738095Y-56561009D01*
X165738095Y-56561009D02*
X165642857Y-56608628D01*
X165642857Y-56608628D02*
X165261905Y-56608628D01*
X166214286Y-56180057D02*
X166261905Y-56132438D01*
X166261905Y-56132438D02*
X166357143Y-56084819D01*
X166357143Y-56084819D02*
X166595238Y-56084819D01*
X166595238Y-56084819D02*
X166690476Y-56132438D01*
X166690476Y-56132438D02*
X166738095Y-56180057D01*
X166738095Y-56180057D02*
X166785714Y-56275295D01*
X166785714Y-56275295D02*
X166785714Y-56370533D01*
X166785714Y-56370533D02*
X166738095Y-56513390D01*
X166738095Y-56513390D02*
X166166667Y-57084819D01*
X166166667Y-57084819D02*
X166785714Y-57084819D01*
X160333333Y-66324819D02*
X160000000Y-65848628D01*
X159761905Y-66324819D02*
X159761905Y-65324819D01*
X159761905Y-65324819D02*
X160142857Y-65324819D01*
X160142857Y-65324819D02*
X160238095Y-65372438D01*
X160238095Y-65372438D02*
X160285714Y-65420057D01*
X160285714Y-65420057D02*
X160333333Y-65515295D01*
X160333333Y-65515295D02*
X160333333Y-65658152D01*
X160333333Y-65658152D02*
X160285714Y-65753390D01*
X160285714Y-65753390D02*
X160238095Y-65801009D01*
X160238095Y-65801009D02*
X160142857Y-65848628D01*
X160142857Y-65848628D02*
X159761905Y-65848628D01*
X160666667Y-65324819D02*
X161285714Y-65324819D01*
X161285714Y-65324819D02*
X160952381Y-65705771D01*
X160952381Y-65705771D02*
X161095238Y-65705771D01*
X161095238Y-65705771D02*
X161190476Y-65753390D01*
X161190476Y-65753390D02*
X161238095Y-65801009D01*
X161238095Y-65801009D02*
X161285714Y-65896247D01*
X161285714Y-65896247D02*
X161285714Y-66134342D01*
X161285714Y-66134342D02*
X161238095Y-66229580D01*
X161238095Y-66229580D02*
X161190476Y-66277200D01*
X161190476Y-66277200D02*
X161095238Y-66324819D01*
X161095238Y-66324819D02*
X160809524Y-66324819D01*
X160809524Y-66324819D02*
X160714286Y-66277200D01*
X160714286Y-66277200D02*
X160666667Y-66229580D01*
X161238095Y-78454819D02*
X161238095Y-77454819D01*
X161238095Y-77931009D02*
X161809523Y-77931009D01*
X161809523Y-78454819D02*
X161809523Y-77454819D01*
X162761904Y-77454819D02*
X162285714Y-77454819D01*
X162285714Y-77454819D02*
X162238095Y-77931009D01*
X162238095Y-77931009D02*
X162285714Y-77883390D01*
X162285714Y-77883390D02*
X162380952Y-77835771D01*
X162380952Y-77835771D02*
X162619047Y-77835771D01*
X162619047Y-77835771D02*
X162714285Y-77883390D01*
X162714285Y-77883390D02*
X162761904Y-77931009D01*
X162761904Y-77931009D02*
X162809523Y-78026247D01*
X162809523Y-78026247D02*
X162809523Y-78264342D01*
X162809523Y-78264342D02*
X162761904Y-78359580D01*
X162761904Y-78359580D02*
X162714285Y-78407200D01*
X162714285Y-78407200D02*
X162619047Y-78454819D01*
X162619047Y-78454819D02*
X162380952Y-78454819D01*
X162380952Y-78454819D02*
X162285714Y-78407200D01*
X162285714Y-78407200D02*
X162238095Y-78359580D01*
X165238095Y-79054819D02*
X165238095Y-78054819D01*
X165238095Y-78531009D02*
X165809523Y-78531009D01*
X165809523Y-79054819D02*
X165809523Y-78054819D01*
X166238095Y-78150057D02*
X166285714Y-78102438D01*
X166285714Y-78102438D02*
X166380952Y-78054819D01*
X166380952Y-78054819D02*
X166619047Y-78054819D01*
X166619047Y-78054819D02*
X166714285Y-78102438D01*
X166714285Y-78102438D02*
X166761904Y-78150057D01*
X166761904Y-78150057D02*
X166809523Y-78245295D01*
X166809523Y-78245295D02*
X166809523Y-78340533D01*
X166809523Y-78340533D02*
X166761904Y-78483390D01*
X166761904Y-78483390D02*
X166190476Y-79054819D01*
X166190476Y-79054819D02*
X166809523Y-79054819D01*
X140788446Y-78609580D02*
X140740827Y-78657200D01*
X140740827Y-78657200D02*
X140597970Y-78704819D01*
X140597970Y-78704819D02*
X140502732Y-78704819D01*
X140502732Y-78704819D02*
X140359875Y-78657200D01*
X140359875Y-78657200D02*
X140264637Y-78561961D01*
X140264637Y-78561961D02*
X140217018Y-78466723D01*
X140217018Y-78466723D02*
X140169399Y-78276247D01*
X140169399Y-78276247D02*
X140169399Y-78133390D01*
X140169399Y-78133390D02*
X140217018Y-77942914D01*
X140217018Y-77942914D02*
X140264637Y-77847676D01*
X140264637Y-77847676D02*
X140359875Y-77752438D01*
X140359875Y-77752438D02*
X140502732Y-77704819D01*
X140502732Y-77704819D02*
X140597970Y-77704819D01*
X140597970Y-77704819D02*
X140740827Y-77752438D01*
X140740827Y-77752438D02*
X140788446Y-77800057D01*
X141740827Y-78704819D02*
X141169399Y-78704819D01*
X141455113Y-78704819D02*
X141455113Y-77704819D01*
X141455113Y-77704819D02*
X141359875Y-77847676D01*
X141359875Y-77847676D02*
X141264637Y-77942914D01*
X141264637Y-77942914D02*
X141169399Y-77990533D01*
X148238095Y-79054819D02*
X148238095Y-78054819D01*
X148238095Y-78531009D02*
X148809523Y-78531009D01*
X148809523Y-79054819D02*
X148809523Y-78054819D01*
X149809523Y-79054819D02*
X149238095Y-79054819D01*
X149523809Y-79054819D02*
X149523809Y-78054819D01*
X149523809Y-78054819D02*
X149428571Y-78197676D01*
X149428571Y-78197676D02*
X149333333Y-78292914D01*
X149333333Y-78292914D02*
X149238095Y-78340533D01*
X147904761Y-60490057D02*
X147809523Y-60442438D01*
X147809523Y-60442438D02*
X147714285Y-60347200D01*
X147714285Y-60347200D02*
X147571428Y-60204342D01*
X147571428Y-60204342D02*
X147476190Y-60156723D01*
X147476190Y-60156723D02*
X147380952Y-60156723D01*
X147428571Y-60394819D02*
X147333333Y-60347200D01*
X147333333Y-60347200D02*
X147238095Y-60251961D01*
X147238095Y-60251961D02*
X147190476Y-60061485D01*
X147190476Y-60061485D02*
X147190476Y-59728152D01*
X147190476Y-59728152D02*
X147238095Y-59537676D01*
X147238095Y-59537676D02*
X147333333Y-59442438D01*
X147333333Y-59442438D02*
X147428571Y-59394819D01*
X147428571Y-59394819D02*
X147619047Y-59394819D01*
X147619047Y-59394819D02*
X147714285Y-59442438D01*
X147714285Y-59442438D02*
X147809523Y-59537676D01*
X147809523Y-59537676D02*
X147857142Y-59728152D01*
X147857142Y-59728152D02*
X147857142Y-60061485D01*
X147857142Y-60061485D02*
X147809523Y-60251961D01*
X147809523Y-60251961D02*
X147714285Y-60347200D01*
X147714285Y-60347200D02*
X147619047Y-60394819D01*
X147619047Y-60394819D02*
X147428571Y-60394819D01*
X148238095Y-59490057D02*
X148285714Y-59442438D01*
X148285714Y-59442438D02*
X148380952Y-59394819D01*
X148380952Y-59394819D02*
X148619047Y-59394819D01*
X148619047Y-59394819D02*
X148714285Y-59442438D01*
X148714285Y-59442438D02*
X148761904Y-59490057D01*
X148761904Y-59490057D02*
X148809523Y-59585295D01*
X148809523Y-59585295D02*
X148809523Y-59680533D01*
X148809523Y-59680533D02*
X148761904Y-59823390D01*
X148761904Y-59823390D02*
X148190476Y-60394819D01*
X148190476Y-60394819D02*
X148809523Y-60394819D01*
X153238095Y-78954819D02*
X153238095Y-77954819D01*
X153238095Y-78431009D02*
X153809523Y-78431009D01*
X153809523Y-78954819D02*
X153809523Y-77954819D01*
X154714285Y-78288152D02*
X154714285Y-78954819D01*
X154476190Y-77907200D02*
X154238095Y-78621485D01*
X154238095Y-78621485D02*
X154857142Y-78621485D01*
X133378221Y-64159580D02*
X133330602Y-64207200D01*
X133330602Y-64207200D02*
X133187745Y-64254819D01*
X133187745Y-64254819D02*
X133092507Y-64254819D01*
X133092507Y-64254819D02*
X132949650Y-64207200D01*
X132949650Y-64207200D02*
X132854412Y-64111961D01*
X132854412Y-64111961D02*
X132806793Y-64016723D01*
X132806793Y-64016723D02*
X132759174Y-63826247D01*
X132759174Y-63826247D02*
X132759174Y-63683390D01*
X132759174Y-63683390D02*
X132806793Y-63492914D01*
X132806793Y-63492914D02*
X132854412Y-63397676D01*
X132854412Y-63397676D02*
X132949650Y-63302438D01*
X132949650Y-63302438D02*
X133092507Y-63254819D01*
X133092507Y-63254819D02*
X133187745Y-63254819D01*
X133187745Y-63254819D02*
X133330602Y-63302438D01*
X133330602Y-63302438D02*
X133378221Y-63350057D01*
X133759174Y-63350057D02*
X133806793Y-63302438D01*
X133806793Y-63302438D02*
X133902031Y-63254819D01*
X133902031Y-63254819D02*
X134140126Y-63254819D01*
X134140126Y-63254819D02*
X134235364Y-63302438D01*
X134235364Y-63302438D02*
X134282983Y-63350057D01*
X134282983Y-63350057D02*
X134330602Y-63445295D01*
X134330602Y-63445295D02*
X134330602Y-63540533D01*
X134330602Y-63540533D02*
X134282983Y-63683390D01*
X134282983Y-63683390D02*
X133711555Y-64254819D01*
X133711555Y-64254819D02*
X134330602Y-64254819D01*
X149261905Y-70994819D02*
X149261905Y-69994819D01*
X149261905Y-69994819D02*
X149500000Y-69994819D01*
X149500000Y-69994819D02*
X149642857Y-70042438D01*
X149642857Y-70042438D02*
X149738095Y-70137676D01*
X149738095Y-70137676D02*
X149785714Y-70232914D01*
X149785714Y-70232914D02*
X149833333Y-70423390D01*
X149833333Y-70423390D02*
X149833333Y-70566247D01*
X149833333Y-70566247D02*
X149785714Y-70756723D01*
X149785714Y-70756723D02*
X149738095Y-70851961D01*
X149738095Y-70851961D02*
X149642857Y-70947200D01*
X149642857Y-70947200D02*
X149500000Y-70994819D01*
X149500000Y-70994819D02*
X149261905Y-70994819D01*
X150785714Y-70994819D02*
X150214286Y-70994819D01*
X150500000Y-70994819D02*
X150500000Y-69994819D01*
X150500000Y-69994819D02*
X150404762Y-70137676D01*
X150404762Y-70137676D02*
X150309524Y-70232914D01*
X150309524Y-70232914D02*
X150214286Y-70280533D01*
D11*
%TO.C,R1*%
X151730000Y-57630000D02*
X151730000Y-57960000D01*
X151730000Y-60370000D02*
X151730000Y-60040000D01*
X158270000Y-57630000D02*
X151730000Y-57630000D01*
X158270000Y-57960000D02*
X158270000Y-57630000D01*
X158270000Y-60040000D02*
X158270000Y-60370000D01*
X158270000Y-60370000D02*
X151730000Y-60370000D01*
%TO.C,C3*%
X171880000Y-57630000D02*
X171880000Y-60370000D01*
X171880000Y-57630000D02*
X179120000Y-57630000D01*
X171880000Y-60370000D02*
X179120000Y-60370000D01*
X179120000Y-57630000D02*
X179120000Y-60370000D01*
%TO.C,R4*%
X140500000Y-67130000D02*
X147040000Y-67130000D01*
X140500000Y-67460000D02*
X140500000Y-67130000D01*
X140500000Y-69540000D02*
X140500000Y-69870000D01*
X140500000Y-69870000D02*
X147040000Y-69870000D01*
X147040000Y-67130000D02*
X147040000Y-67460000D01*
X147040000Y-69870000D02*
X147040000Y-69540000D01*
%TO.C,R5*%
X152730000Y-74630000D02*
X152730000Y-74960000D01*
X152730000Y-77370000D02*
X152730000Y-77040000D01*
X159270000Y-74630000D02*
X152730000Y-74630000D01*
X159270000Y-74960000D02*
X159270000Y-74630000D01*
X159270000Y-77040000D02*
X159270000Y-77370000D01*
X159270000Y-77370000D02*
X152730000Y-77370000D01*
%TO.C,Q1*%
X141300000Y-60790000D02*
X137700000Y-60790000D01*
X139500000Y-65240000D02*
G75*
G02*
X137661522Y-60801522I0J2600000D01*
G01*
X141338478Y-60801522D02*
G75*
G02*
X139500000Y-65240001I-1838478J-1838478D01*
G01*
%TO.C,R2*%
X162730000Y-57630000D02*
X169270000Y-57630000D01*
X162730000Y-57960000D02*
X162730000Y-57630000D01*
X162730000Y-60040000D02*
X162730000Y-60370000D01*
X162730000Y-60370000D02*
X169270000Y-60370000D01*
X169270000Y-57630000D02*
X169270000Y-57960000D01*
X169270000Y-60370000D02*
X169270000Y-60040000D01*
%TO.C,R3*%
X157230000Y-62130000D02*
X157230000Y-62460000D01*
X157230000Y-64870000D02*
X157230000Y-64540000D01*
X163770000Y-62130000D02*
X157230000Y-62130000D01*
X163770000Y-62460000D02*
X163770000Y-62130000D01*
X163770000Y-64540000D02*
X163770000Y-64870000D01*
X163770000Y-64870000D02*
X157230000Y-64870000D01*
%TO.C,C1*%
X138354113Y-74784000D02*
X138354113Y-74216000D01*
X138394113Y-75018000D02*
X138394113Y-73982000D01*
X138434113Y-75177000D02*
X138434113Y-73823000D01*
X138474113Y-75305000D02*
X138474113Y-73695000D01*
X138514113Y-75415000D02*
X138514113Y-73585000D01*
X138554113Y-75511000D02*
X138554113Y-73489000D01*
X138594113Y-75598000D02*
X138594113Y-73402000D01*
X138634113Y-75678000D02*
X138634113Y-73322000D01*
X138674113Y-73460000D02*
X138674113Y-73249000D01*
X138674113Y-75751000D02*
X138674113Y-75540000D01*
X138714113Y-73460000D02*
X138714113Y-73181000D01*
X138714113Y-75819000D02*
X138714113Y-75540000D01*
X138754113Y-73460000D02*
X138754113Y-73117000D01*
X138754113Y-75883000D02*
X138754113Y-75540000D01*
X138794113Y-73460000D02*
X138794113Y-73057000D01*
X138794113Y-75943000D02*
X138794113Y-75540000D01*
X138834113Y-73460000D02*
X138834113Y-73000000D01*
X138834113Y-76000000D02*
X138834113Y-75540000D01*
X138874113Y-73460000D02*
X138874113Y-72946000D01*
X138874113Y-76054000D02*
X138874113Y-75540000D01*
X138914113Y-73460000D02*
X138914113Y-72895000D01*
X138914113Y-76105000D02*
X138914113Y-75540000D01*
X138954113Y-73460000D02*
X138954113Y-72847000D01*
X138954113Y-76153000D02*
X138954113Y-75540000D01*
X138994113Y-73460000D02*
X138994113Y-72801000D01*
X138994113Y-76199000D02*
X138994113Y-75540000D01*
X139034113Y-73460000D02*
X139034113Y-72757000D01*
X139034113Y-76243000D02*
X139034113Y-75540000D01*
X139074113Y-73460000D02*
X139074113Y-72715000D01*
X139074113Y-76285000D02*
X139074113Y-75540000D01*
X139114113Y-73460000D02*
X139114113Y-72674000D01*
X139114113Y-76326000D02*
X139114113Y-75540000D01*
X139154113Y-73460000D02*
X139154113Y-72636000D01*
X139154113Y-76364000D02*
X139154113Y-75540000D01*
X139194113Y-73460000D02*
X139194113Y-72599000D01*
X139194113Y-76401000D02*
X139194113Y-75540000D01*
X139234113Y-73460000D02*
X139234113Y-72563000D01*
X139234113Y-76437000D02*
X139234113Y-75540000D01*
X139274113Y-73460000D02*
X139274113Y-72529000D01*
X139274113Y-76471000D02*
X139274113Y-75540000D01*
X139314113Y-73460000D02*
X139314113Y-72496000D01*
X139314113Y-76504000D02*
X139314113Y-75540000D01*
X139354113Y-73460000D02*
X139354113Y-72465000D01*
X139354113Y-76535000D02*
X139354113Y-75540000D01*
X139394113Y-73460000D02*
X139394113Y-72435000D01*
X139394113Y-76565000D02*
X139394113Y-75540000D01*
X139434113Y-73460000D02*
X139434113Y-72405000D01*
X139434113Y-76595000D02*
X139434113Y-75540000D01*
X139474113Y-73460000D02*
X139474113Y-72378000D01*
X139474113Y-76622000D02*
X139474113Y-75540000D01*
X139514113Y-73460000D02*
X139514113Y-72351000D01*
X139514113Y-76649000D02*
X139514113Y-75540000D01*
X139554113Y-73460000D02*
X139554113Y-72325000D01*
X139554113Y-76675000D02*
X139554113Y-75540000D01*
X139594113Y-73460000D02*
X139594113Y-72300000D01*
X139594113Y-76700000D02*
X139594113Y-75540000D01*
X139634113Y-73460000D02*
X139634113Y-72276000D01*
X139634113Y-76724000D02*
X139634113Y-75540000D01*
X139674113Y-73460000D02*
X139674113Y-72253000D01*
X139674113Y-76747000D02*
X139674113Y-75540000D01*
X139714113Y-73460000D02*
X139714113Y-72232000D01*
X139714113Y-76768000D02*
X139714113Y-75540000D01*
X139754113Y-73460000D02*
X139754113Y-72210000D01*
X139754113Y-76790000D02*
X139754113Y-75540000D01*
X139794113Y-73460000D02*
X139794113Y-72190000D01*
X139794113Y-76810000D02*
X139794113Y-75540000D01*
X139834113Y-73460000D02*
X139834113Y-72171000D01*
X139834113Y-76829000D02*
X139834113Y-75540000D01*
X139874113Y-73460000D02*
X139874113Y-72152000D01*
X139874113Y-76848000D02*
X139874113Y-75540000D01*
X139914113Y-73460000D02*
X139914113Y-72135000D01*
X139914113Y-76865000D02*
X139914113Y-75540000D01*
X139954113Y-73460000D02*
X139954113Y-72118000D01*
X139954113Y-76882000D02*
X139954113Y-75540000D01*
X139994113Y-73460000D02*
X139994113Y-72102000D01*
X139994113Y-76898000D02*
X139994113Y-75540000D01*
X140034113Y-73460000D02*
X140034113Y-72086000D01*
X140034113Y-76914000D02*
X140034113Y-75540000D01*
X140074113Y-73460000D02*
X140074113Y-72072000D01*
X140074113Y-76928000D02*
X140074113Y-75540000D01*
X140114113Y-73460000D02*
X140114113Y-72058000D01*
X140114113Y-76942000D02*
X140114113Y-75540000D01*
X140154113Y-73460000D02*
X140154113Y-72045000D01*
X140154113Y-76955000D02*
X140154113Y-75540000D01*
X140194113Y-73460000D02*
X140194113Y-72032000D01*
X140194113Y-76968000D02*
X140194113Y-75540000D01*
X140234113Y-73460000D02*
X140234113Y-72020000D01*
X140234113Y-76980000D02*
X140234113Y-75540000D01*
X140275113Y-73460000D02*
X140275113Y-72009000D01*
X140275113Y-76991000D02*
X140275113Y-75540000D01*
X140315113Y-73460000D02*
X140315113Y-71999000D01*
X140315113Y-77001000D02*
X140315113Y-75540000D01*
X140355113Y-73460000D02*
X140355113Y-71989000D01*
X140355113Y-77011000D02*
X140355113Y-75540000D01*
X140395113Y-73460000D02*
X140395113Y-71980000D01*
X140395113Y-77020000D02*
X140395113Y-75540000D01*
X140435113Y-73460000D02*
X140435113Y-71972000D01*
X140435113Y-77028000D02*
X140435113Y-75540000D01*
X140475113Y-73460000D02*
X140475113Y-71964000D01*
X140475113Y-77036000D02*
X140475113Y-75540000D01*
X140515113Y-73460000D02*
X140515113Y-71957000D01*
X140515113Y-77043000D02*
X140515113Y-75540000D01*
X140555113Y-73460000D02*
X140555113Y-71950000D01*
X140555113Y-77050000D02*
X140555113Y-75540000D01*
X140595113Y-73460000D02*
X140595113Y-71944000D01*
X140595113Y-77056000D02*
X140595113Y-75540000D01*
X140635113Y-73460000D02*
X140635113Y-71939000D01*
X140635113Y-77061000D02*
X140635113Y-75540000D01*
X140675113Y-73460000D02*
X140675113Y-71935000D01*
X140675113Y-77065000D02*
X140675113Y-75540000D01*
X140715113Y-73460000D02*
X140715113Y-71931000D01*
X140715113Y-77069000D02*
X140715113Y-75540000D01*
X140755113Y-77073000D02*
X140755113Y-71927000D01*
X140795113Y-77076000D02*
X140795113Y-71924000D01*
X140835113Y-77078000D02*
X140835113Y-71922000D01*
X140875113Y-77079000D02*
X140875113Y-71921000D01*
X140915113Y-77080000D02*
X140915113Y-71920000D01*
X140955113Y-77080000D02*
X140955113Y-71920000D01*
X143509888Y-76225000D02*
X143509888Y-75725000D01*
X143759888Y-75975000D02*
X143259888Y-75975000D01*
X143575113Y-74500000D02*
G75*
G02*
X138335113Y-74500000I-2620000J0D01*
G01*
X138335113Y-74500000D02*
G75*
G02*
X143575113Y-74500000I2620000J0D01*
G01*
%TO.C,Q2*%
X146200000Y-65350000D02*
X149800000Y-65350000D01*
X146161522Y-65338478D02*
G75*
G02*
X148000000Y-60899999I1838478J1838478D01*
G01*
X148000000Y-60900000D02*
G75*
G02*
X149838478Y-65338478I0J-2600000D01*
G01*
%TO.C,C2*%
X130740113Y-57025000D02*
X131240113Y-57025000D01*
X130990113Y-56775000D02*
X130990113Y-57275000D01*
X133544888Y-55920000D02*
X133544888Y-61080000D01*
X133584888Y-55920000D02*
X133584888Y-61080000D01*
X133624888Y-55921000D02*
X133624888Y-61079000D01*
X133664888Y-55922000D02*
X133664888Y-61078000D01*
X133704888Y-55924000D02*
X133704888Y-61076000D01*
X133744888Y-55927000D02*
X133744888Y-61073000D01*
X133784888Y-55931000D02*
X133784888Y-57460000D01*
X133784888Y-59540000D02*
X133784888Y-61069000D01*
X133824888Y-55935000D02*
X133824888Y-57460000D01*
X133824888Y-59540000D02*
X133824888Y-61065000D01*
X133864888Y-55939000D02*
X133864888Y-57460000D01*
X133864888Y-59540000D02*
X133864888Y-61061000D01*
X133904888Y-55944000D02*
X133904888Y-57460000D01*
X133904888Y-59540000D02*
X133904888Y-61056000D01*
X133944888Y-55950000D02*
X133944888Y-57460000D01*
X133944888Y-59540000D02*
X133944888Y-61050000D01*
X133984888Y-55957000D02*
X133984888Y-57460000D01*
X133984888Y-59540000D02*
X133984888Y-61043000D01*
X134024888Y-55964000D02*
X134024888Y-57460000D01*
X134024888Y-59540000D02*
X134024888Y-61036000D01*
X134064888Y-55972000D02*
X134064888Y-57460000D01*
X134064888Y-59540000D02*
X134064888Y-61028000D01*
X134104888Y-55980000D02*
X134104888Y-57460000D01*
X134104888Y-59540000D02*
X134104888Y-61020000D01*
X134144888Y-55989000D02*
X134144888Y-57460000D01*
X134144888Y-59540000D02*
X134144888Y-61011000D01*
X134184888Y-55999000D02*
X134184888Y-57460000D01*
X134184888Y-59540000D02*
X134184888Y-61001000D01*
X134224888Y-56009000D02*
X134224888Y-57460000D01*
X134224888Y-59540000D02*
X134224888Y-60991000D01*
X134265888Y-56020000D02*
X134265888Y-57460000D01*
X134265888Y-59540000D02*
X134265888Y-60980000D01*
X134305888Y-56032000D02*
X134305888Y-57460000D01*
X134305888Y-59540000D02*
X134305888Y-60968000D01*
X134345888Y-56045000D02*
X134345888Y-57460000D01*
X134345888Y-59540000D02*
X134345888Y-60955000D01*
X134385888Y-56058000D02*
X134385888Y-57460000D01*
X134385888Y-59540000D02*
X134385888Y-60942000D01*
X134425888Y-56072000D02*
X134425888Y-57460000D01*
X134425888Y-59540000D02*
X134425888Y-60928000D01*
X134465888Y-56086000D02*
X134465888Y-57460000D01*
X134465888Y-59540000D02*
X134465888Y-60914000D01*
X134505888Y-56102000D02*
X134505888Y-57460000D01*
X134505888Y-59540000D02*
X134505888Y-60898000D01*
X134545888Y-56118000D02*
X134545888Y-57460000D01*
X134545888Y-59540000D02*
X134545888Y-60882000D01*
X134585888Y-56135000D02*
X134585888Y-57460000D01*
X134585888Y-59540000D02*
X134585888Y-60865000D01*
X134625888Y-56152000D02*
X134625888Y-57460000D01*
X134625888Y-59540000D02*
X134625888Y-60848000D01*
X134665888Y-56171000D02*
X134665888Y-57460000D01*
X134665888Y-59540000D02*
X134665888Y-60829000D01*
X134705888Y-56190000D02*
X134705888Y-57460000D01*
X134705888Y-59540000D02*
X134705888Y-60810000D01*
X134745888Y-56210000D02*
X134745888Y-57460000D01*
X134745888Y-59540000D02*
X134745888Y-60790000D01*
X134785888Y-56232000D02*
X134785888Y-57460000D01*
X134785888Y-59540000D02*
X134785888Y-60768000D01*
X134825888Y-56253000D02*
X134825888Y-57460000D01*
X134825888Y-59540000D02*
X134825888Y-60747000D01*
X134865888Y-56276000D02*
X134865888Y-57460000D01*
X134865888Y-59540000D02*
X134865888Y-60724000D01*
X134905888Y-56300000D02*
X134905888Y-57460000D01*
X134905888Y-59540000D02*
X134905888Y-60700000D01*
X134945888Y-56325000D02*
X134945888Y-57460000D01*
X134945888Y-59540000D02*
X134945888Y-60675000D01*
X134985888Y-56351000D02*
X134985888Y-57460000D01*
X134985888Y-59540000D02*
X134985888Y-60649000D01*
X135025888Y-56378000D02*
X135025888Y-57460000D01*
X135025888Y-59540000D02*
X135025888Y-60622000D01*
X135065888Y-56405000D02*
X135065888Y-57460000D01*
X135065888Y-59540000D02*
X135065888Y-60595000D01*
X135105888Y-56435000D02*
X135105888Y-57460000D01*
X135105888Y-59540000D02*
X135105888Y-60565000D01*
X135145888Y-56465000D02*
X135145888Y-57460000D01*
X135145888Y-59540000D02*
X135145888Y-60535000D01*
X135185888Y-56496000D02*
X135185888Y-57460000D01*
X135185888Y-59540000D02*
X135185888Y-60504000D01*
X135225888Y-56529000D02*
X135225888Y-57460000D01*
X135225888Y-59540000D02*
X135225888Y-60471000D01*
X135265888Y-56563000D02*
X135265888Y-57460000D01*
X135265888Y-59540000D02*
X135265888Y-60437000D01*
X135305888Y-56599000D02*
X135305888Y-57460000D01*
X135305888Y-59540000D02*
X135305888Y-60401000D01*
X135345888Y-56636000D02*
X135345888Y-57460000D01*
X135345888Y-59540000D02*
X135345888Y-60364000D01*
X135385888Y-56674000D02*
X135385888Y-57460000D01*
X135385888Y-59540000D02*
X135385888Y-60326000D01*
X135425888Y-56715000D02*
X135425888Y-57460000D01*
X135425888Y-59540000D02*
X135425888Y-60285000D01*
X135465888Y-56757000D02*
X135465888Y-57460000D01*
X135465888Y-59540000D02*
X135465888Y-60243000D01*
X135505888Y-56801000D02*
X135505888Y-57460000D01*
X135505888Y-59540000D02*
X135505888Y-60199000D01*
X135545888Y-56847000D02*
X135545888Y-57460000D01*
X135545888Y-59540000D02*
X135545888Y-60153000D01*
X135585888Y-56895000D02*
X135585888Y-57460000D01*
X135585888Y-59540000D02*
X135585888Y-60105000D01*
X135625888Y-56946000D02*
X135625888Y-57460000D01*
X135625888Y-59540000D02*
X135625888Y-60054000D01*
X135665888Y-57000000D02*
X135665888Y-57460000D01*
X135665888Y-59540000D02*
X135665888Y-60000000D01*
X135705888Y-57057000D02*
X135705888Y-57460000D01*
X135705888Y-59540000D02*
X135705888Y-59943000D01*
X135745888Y-57117000D02*
X135745888Y-57460000D01*
X135745888Y-59540000D02*
X135745888Y-59883000D01*
X135785888Y-57181000D02*
X135785888Y-57460000D01*
X135785888Y-59540000D02*
X135785888Y-59819000D01*
X135825888Y-57249000D02*
X135825888Y-57460000D01*
X135825888Y-59540000D02*
X135825888Y-59751000D01*
X135865888Y-57322000D02*
X135865888Y-59678000D01*
X135905888Y-57402000D02*
X135905888Y-59598000D01*
X135945888Y-57489000D02*
X135945888Y-59511000D01*
X135985888Y-57585000D02*
X135985888Y-59415000D01*
X136025888Y-57695000D02*
X136025888Y-59305000D01*
X136065888Y-57823000D02*
X136065888Y-59177000D01*
X136105888Y-57982000D02*
X136105888Y-59018000D01*
X136145888Y-58216000D02*
X136145888Y-58784000D01*
X136164888Y-58500000D02*
G75*
G02*
X130924888Y-58500000I-2620000J0D01*
G01*
X130924888Y-58500000D02*
G75*
G02*
X136164888Y-58500000I2620000J0D01*
G01*
%TO.C,D1*%
X144935000Y-72955000D02*
X144935000Y-76045000D01*
X150485000Y-74500048D02*
G75*
G02*
X144935000Y-76044830I-2990000J48D01*
G01*
X144935000Y-72955170D02*
G75*
G02*
X150485000Y-74499952I2560000J-1544830D01*
G01*
X149995000Y-74500000D02*
G75*
G02*
X144995000Y-74500000I-2500000J0D01*
G01*
X144995000Y-74500000D02*
G75*
G02*
X149995000Y-74500000I2500000J0D01*
G01*
%TD*%
M02*
