%TF.GenerationSoftware,KiCad,Pcbnew,9.0.0*%
%TF.CreationDate,2025-04-02T21:44:06-06:00*%
%TF.ProjectId,FuzzFace2copy,46757a7a-4661-4636-9532-636f70792e6b,rev?*%
%TF.SameCoordinates,Original*%
%TF.FileFunction,Copper,L1,Top*%
%TF.FilePolarity,Positive*%
%FSLAX46Y46*%
G04 Gerber Fmt 4.6, Leading zero omitted, Abs format (unit mm)*
G04 Created by KiCad (PCBNEW 9.0.0) date 2025-04-02 21:44:06*
%MOMM*%
%LPD*%
G01*
G04 APERTURE LIST*
%TA.AperFunction,ComponentPad*%
%ADD10C,1.600000*%
%TD*%
%TA.AperFunction,ComponentPad*%
%ADD11O,1.600000X1.600000*%
%TD*%
%TA.AperFunction,ComponentPad*%
%ADD12R,1.800000X1.800000*%
%TD*%
%TA.AperFunction,ComponentPad*%
%ADD13C,1.800000*%
%TD*%
%TA.AperFunction,ComponentPad*%
%ADD14C,2.600000*%
%TD*%
%TA.AperFunction,ConnectorPad*%
%ADD15C,3.800000*%
%TD*%
%TA.AperFunction,ComponentPad*%
%ADD16R,1.050000X1.500000*%
%TD*%
%TA.AperFunction,ComponentPad*%
%ADD17O,1.050000X1.500000*%
%TD*%
%TA.AperFunction,ComponentPad*%
%ADD18R,1.600000X1.600000*%
%TD*%
%TA.AperFunction,ComponentPad*%
%ADD19R,3.000000X3.000000*%
%TD*%
%TA.AperFunction,ComponentPad*%
%ADD20C,3.000000*%
%TD*%
%TA.AperFunction,Conductor*%
%ADD21C,0.200000*%
%TD*%
G04 APERTURE END LIST*
D10*
%TO.P,R1,1*%
%TO.N,Net-(H5-Pad1)*%
X158810000Y-59000000D03*
D11*
%TO.P,R1,2*%
%TO.N,Net-(Q1-C)*%
X151190000Y-59000000D03*
%TD*%
D10*
%TO.P,C3,1*%
%TO.N,Net-(C3-Pad1)*%
X173000000Y-59000000D03*
%TO.P,C3,2*%
%TO.N,Net-(C3-Pad2)*%
X178000000Y-59000000D03*
%TD*%
D12*
%TO.P,D1,1,K*%
%TO.N,Net-(D1-K)*%
X146225000Y-74500000D03*
D13*
%TO.P,D1,2,A*%
%TO.N,Net-(D1-A)*%
X148765000Y-74500000D03*
%TD*%
D10*
%TO.P,R4,1*%
%TO.N,Net-(Q1-B)*%
X139960000Y-68500000D03*
D11*
%TO.P,R4,2*%
%TO.N,Net-(Q2-E)*%
X147580000Y-68500000D03*
%TD*%
D14*
%TO.P,H3,1,1*%
%TO.N,Net-(D1-K)*%
X144000000Y-81500000D03*
D15*
X144000000Y-81500000D03*
%TD*%
D10*
%TO.P,R5,1*%
%TO.N,Net-(H4-Pad1)*%
X159810000Y-76000000D03*
D11*
%TO.P,R5,2*%
%TO.N,Net-(D1-A)*%
X152190000Y-76000000D03*
%TD*%
D16*
%TO.P,Q1,1,E*%
%TO.N,GND*%
X140770000Y-62640000D03*
D17*
%TO.P,Q1,2,C*%
%TO.N,Net-(Q1-C)*%
X139500000Y-62640000D03*
%TO.P,Q1,3,B*%
%TO.N,Net-(Q1-B)*%
X138230000Y-62640000D03*
%TD*%
D10*
%TO.P,R2,1*%
%TO.N,Net-(H5-Pad1)*%
X162190000Y-59000000D03*
D11*
%TO.P,R2,2*%
%TO.N,Net-(C3-Pad1)*%
X169810000Y-59000000D03*
%TD*%
D10*
%TO.P,R3,1*%
%TO.N,Net-(C3-Pad1)*%
X164310000Y-63500000D03*
D11*
%TO.P,R3,2*%
%TO.N,Net-(Q2-C)*%
X156690000Y-63500000D03*
%TD*%
D14*
%TO.P,H5,1,1*%
%TO.N,Net-(H5-Pad1)*%
X161000000Y-81500000D03*
D15*
X161000000Y-81500000D03*
%TD*%
D14*
%TO.P,H2,1,1*%
%TO.N,Net-(H2-Pad1)*%
X166000000Y-81500000D03*
D15*
X166000000Y-81500000D03*
%TD*%
D18*
%TO.P,C1,1*%
%TO.N,Net-(C1-Pad1)*%
X142205113Y-74500000D03*
D10*
%TO.P,C1,2*%
%TO.N,Net-(Q1-B)*%
X139705113Y-74500000D03*
%TD*%
D14*
%TO.P,H1,1,1*%
%TO.N,Net-(C1-Pad1)*%
X149000000Y-81500000D03*
D15*
X149000000Y-81500000D03*
%TD*%
D16*
%TO.P,Q2,1,E*%
%TO.N,Net-(Q2-E)*%
X146730000Y-63500000D03*
D17*
%TO.P,Q2,2,C*%
%TO.N,Net-(Q2-C)*%
X148000000Y-63500000D03*
%TO.P,Q2,3,B*%
%TO.N,Net-(Q1-C)*%
X149270000Y-63500000D03*
%TD*%
D14*
%TO.P,H4,1,1*%
%TO.N,Net-(H4-Pad1)*%
X154000000Y-81500000D03*
D15*
X154000000Y-81500000D03*
%TD*%
D18*
%TO.P,C2,1*%
%TO.N,GND*%
X132294888Y-58500000D03*
D10*
%TO.P,C2,2*%
%TO.N,Net-(C2-Pad2)*%
X134794888Y-58500000D03*
%TD*%
D19*
%TO.P,R_vol1,1,1*%
%TO.N,Net-(C3-Pad2)*%
X161177525Y-48000000D03*
D20*
%TO.P,R_vol1,2,2*%
%TO.N,Net-(H2-Pad1)*%
X166177525Y-48000000D03*
%TO.P,R_vol1,3,3*%
%TO.N,GND*%
X171177525Y-48000000D03*
%TD*%
D19*
%TO.P,R_fuzz1,1,1*%
%TO.N,Net-(Q2-E)*%
X138000000Y-48000000D03*
D20*
%TO.P,R_fuzz1,2,2*%
%TO.N,Net-(C2-Pad2)*%
X143000000Y-48000000D03*
%TO.P,R_fuzz1,3,3*%
%TO.N,GND*%
X148000000Y-48000000D03*
%TD*%
D21*
%TO.N,Net-(C3-Pad2)*%
X169612059Y-56434534D02*
G75*
G03*
X173147593Y-57899005I3535541J3535534D01*
G01*
%TO.N,Net-(Q2-E)*%
X145265534Y-55265534D02*
G75*
G02*
X146730023Y-58801068I-3535534J-3535566D01*
G01*
%TO.N,GND*%
X133919422Y-60124534D02*
G75*
G03*
X137454956Y-61589031I3535578J3535534D01*
G01*
%TO.N,Net-(Q1-B)*%
X139694466Y-68234466D02*
G75*
G02*
X138229977Y-64698932I3535534J3535566D01*
G01*
%TO.N,Net-(Q1-C)*%
X149270000Y-62991068D02*
G75*
G02*
X150734482Y-59455550I5000000J-32D01*
G01*
%TO.N,GND*%
X140770000Y-62516860D02*
X140770000Y-62640000D01*
X140770000Y-62640000D02*
X140770000Y-62334950D01*
X137454956Y-61589000D02*
X139842140Y-61589000D01*
X139842140Y-61589000D02*
X140770000Y-62516860D01*
X132294888Y-58500000D02*
X133919422Y-60124534D01*
%TO.N,Net-(Q1-B)*%
X139694466Y-68234466D02*
X139960000Y-68500000D01*
X138230000Y-62640000D02*
X138230000Y-64698932D01*
X139705113Y-74500000D02*
X139705113Y-68754887D01*
X139705113Y-68754887D02*
X139960000Y-68500000D01*
%TO.N,Net-(Q1-C)*%
X149270000Y-63500000D02*
X149270000Y-62991068D01*
X150734466Y-59455534D02*
X151190000Y-59000000D01*
%TO.N,Net-(Q2-C)*%
X156690000Y-62942950D02*
X156690000Y-63500000D01*
%TO.N,Net-(Q2-E)*%
X146730000Y-63500000D02*
X146730000Y-58801068D01*
X145265534Y-55265534D02*
X138000000Y-48000000D01*
X146730000Y-67650000D02*
X146730000Y-63500000D01*
X147580000Y-68500000D02*
X146730000Y-67650000D01*
%TO.N,Net-(C1-Pad1)*%
X142205113Y-74705113D02*
X142205113Y-74500000D01*
X149000000Y-81500000D02*
X142205113Y-74705113D01*
%TO.N,Net-(C3-Pad2)*%
X176899000Y-57899000D02*
X173147593Y-57899000D01*
X169612059Y-56434534D02*
X161177525Y-48000000D01*
X178000000Y-59000000D02*
X176899000Y-57899000D01*
%TO.N,Net-(C3-Pad1)*%
X164310000Y-63500000D02*
X168810000Y-59000000D01*
X169810000Y-59000000D02*
X173000000Y-59000000D01*
X168810000Y-59000000D02*
X169810000Y-59000000D01*
%TO.N,Net-(D1-A)*%
X151989000Y-76201000D02*
X152190000Y-76000000D01*
%TO.N,Net-(H2-Pad1)*%
X166000000Y-81500000D02*
X166000000Y-80500000D01*
%TO.N,Net-(H5-Pad1)*%
X161000000Y-81500000D02*
X161000000Y-80500000D01*
X161000000Y-80500000D02*
X162190000Y-79310000D01*
X162190000Y-79310000D02*
X162190000Y-59000000D01*
X158810000Y-59000000D02*
X162190000Y-59000000D01*
%TD*%
M02*
